<?xml version="1.0" encoding="UTF-8"?>
<svg width="111px" height="55px" viewBox="0 0 111 55" version="1.1" xmlns="http://www.w3.org/2000/svg" xmlns:xlink="http://www.w3.org/1999/xlink">
    <!-- Generator: Sketch 52.6 (67491) - http://www.bohemiancoding.com/sketch -->
    <title>Group 2</title>
    <desc>Created with Sketch.</desc>
    <g id="Text-Heavy" stroke="none" stroke-width="1" fill="none" fill-rule="evenodd">
        <g id="728x90/728x90_1" transform="translate(-442.000000, -15.000000)">
            <g id="Group-2" transform="translate(442.000000, 15.000000)">
                <path d="M19.902,41.52 C20.188,41.52 20.344,41.65 20.344,41.884 L20.344,41.988 C20.344,42.56 19.434,42.612 19.044,43.704 L15.534,53.428 C15.404,53.818 15.222,54 14.806,54 L14.13,54 C13.714,54 13.454,53.818 13.35,53.428 L10.672,45.004 L7.994,53.428 C7.864,53.818 7.63,54 7.24,54 L6.772,54 C6.356,54 6.148,53.818 5.992,53.428 L2.092,43.704 C1.702,42.664 0.974,42.534 0.974,41.988 L0.974,41.884 C0.974,41.65 1.156,41.52 1.442,41.52 L5.446,41.52 C5.732,41.52 5.888,41.676 5.888,41.91 L5.888,41.988 C5.888,42.534 4.718,42.56 5.134,43.73 L7.578,50.828 L10.282,42.066 C10.386,41.754 10.516,41.598 10.802,41.598 L12.05,41.572 C12.362,41.572 12.492,41.728 12.57,42.014 L15.222,50.854 L17.614,43.99 C18.082,42.612 16.626,42.56 16.626,41.988 L16.626,41.91 C16.626,41.676 16.834,41.52 17.094,41.52 L19.902,41.52 Z M31.706,50.178 C31.992,49.814 32.59,49.918 32.538,50.438 C32.304,51.972 30.562,54.26 27.26,54.26 C23.776,54.26 21.098,51.686 21.098,47.656 C21.098,43.938 23.88,41.26 27.312,41.26 C30.666,41.26 32.174,43.262 32.174,45.082 C32.174,46.07 31.654,46.616 30.848,46.902 L24.556,49.216 C25.206,50.984 26.532,52.076 28.378,52.076 C30.016,52.076 31.186,51.218 31.706,50.178 Z M26.792,42.248 C25.154,42.248 24.114,43.99 24.114,46.486 C24.114,47.084 24.166,47.63 24.27,48.15 L28.586,46.278 C29.054,46.07 29.262,45.706 29.262,45.186 C29.262,44.12 28.3,42.248 26.792,42.248 Z M41.352,41.26 C44.472,41.26 47.384,43.6 47.384,47.552 C47.384,51.504 44.654,54.26 41.378,54.26 C39.818,54.26 38.57,53.662 37.686,52.622 L37.712,53.558 C37.712,53.896 37.53,54.052 37.192,54.052 L34.384,54 C34.098,54 33.916,53.87 33.916,53.636 L33.916,53.558 C33.916,53.012 34.904,52.856 34.904,51.816 L34.904,38.166 C34.904,37.048 33.786,36.97 33.786,36.398 L33.786,36.32 C33.786,36.086 33.916,35.982 34.306,35.8 L36.984,34.526 C37.53,34.266 37.92,34.422 37.92,34.968 L37.92,42.638 C38.726,41.754 39.948,41.26 41.352,41.26 Z M41.014,53.272 C43.068,53.272 44.316,51.556 44.316,48.514 C44.316,44.796 42.834,42.248 40.598,42.248 C39.142,42.248 37.92,43.522 37.92,45.186 L37.92,49.58 C37.92,51.478 39.428,53.272 41.014,53.272 Z M54.3,54.234 C50.894,54.234 48.866,52.674 48.866,51.244 C48.866,50.438 49.412,50.048 50.166,50.048 C52.116,50.048 51.258,53.35 54.3,53.35 C55.678,53.35 56.692,52.674 56.692,51.348 C56.692,47.838 49.126,50.152 49.126,44.952 C49.126,42.846 51.232,41.26 54.222,41.26 C57.472,41.26 59.422,42.846 59.422,44.354 C59.422,45.004 58.902,45.472 58.226,45.472 C56.406,45.472 57.108,42.196 54.378,42.196 C53.104,42.196 52.194,43.08 52.194,44.198 C52.194,47.734 59.76,45.472 59.76,50.62 C59.76,52.648 57.654,54.234 54.3,54.234 Z M63.894,39.362 C62.594,39.362 61.736,38.556 61.736,37.412 C61.736,36.294 62.594,35.462 63.894,35.462 C65.168,35.462 66,36.294 66,37.412 C66,38.556 65.168,39.362 63.894,39.362 Z M61.97,54 C61.632,54 61.424,53.844 61.424,53.61 L61.424,53.506 C61.424,52.934 62.386,52.83 62.386,51.816 L62.386,45.004 C62.386,43.938 61.424,43.678 61.424,43.21 L61.424,43.132 C61.424,42.924 61.606,42.82 61.892,42.664 L64.492,41.364 C65.09,41.078 65.428,41.39 65.428,41.806 L65.428,51.816 C65.428,52.83 66.494,52.934 66.494,53.506 L66.494,53.61 C66.494,53.844 66.26,54 65.922,54 L61.97,54 Z M73.098,54.26 C70.914,54.26 69.458,52.856 69.458,50.048 L69.458,42.794 L67.976,42.794 C67.716,42.794 67.534,42.612 67.534,42.352 L67.534,41.988 C67.534,41.702 67.69,41.52 67.976,41.52 L68.782,41.52 C70.134,41.52 70.94,40.506 71.148,38.998 C71.2,38.634 71.408,38.426 71.668,38.426 L72.058,38.426 C72.396,38.426 72.552,38.634 72.552,38.998 L72.578,41.52 L75.854,41.52 C76.114,41.52 76.322,41.728 76.322,41.988 L76.322,42.352 C76.322,42.612 76.114,42.794 75.854,42.794 L72.578,42.794 L72.578,50.074 C72.578,51.322 73.202,51.998 74.06,51.998 C75.152,51.998 75.75,51.4 75.906,50.646 C76.14,50.23 76.764,50.308 76.764,50.776 C76.764,52.518 75.438,54.26 73.098,54.26 Z M88.386,50.178 C88.672,49.814 89.27,49.918 89.218,50.438 C88.984,51.972 87.242,54.26 83.94,54.26 C80.456,54.26 77.778,51.686 77.778,47.656 C77.778,43.938 80.56,41.26 83.992,41.26 C87.346,41.26 88.854,43.262 88.854,45.082 C88.854,46.07 88.334,46.616 87.528,46.902 L81.236,49.216 C81.886,50.984 83.212,52.076 85.058,52.076 C86.696,52.076 87.866,51.218 88.386,50.178 Z M83.472,42.248 C81.834,42.248 80.794,43.99 80.794,46.486 C80.794,47.084 80.846,47.63 80.95,48.15 L85.266,46.278 C85.734,46.07 85.942,45.706 85.942,45.186 C85.942,44.12 84.98,42.248 83.472,42.248 Z M92.936,54.26 C91.818,54.26 90.908,53.636 90.908,52.414 C90.908,51.166 91.818,50.542 92.936,50.542 C94.028,50.542 94.938,51.166 94.938,52.414 C94.938,53.636 94.028,54.26 92.936,54.26 Z" id="website." fill="#016087"></path>
                <path d="M12.7,10.068 C15.976,10.51 17.822,12.33 17.822,14.826 C17.822,17.972 14.806,20 10.308,20 L2.95,20 C2.612,20 2.404,19.87 2.404,19.636 L2.404,19.532 C2.404,18.986 3.366,18.856 3.366,17.842 L3.366,3.698 C3.366,2.684 2.404,2.554 2.404,1.982 L2.404,1.904 C2.404,1.67 2.612,1.54 2.95,1.54 L9.268,1.54 C13.636,1.54 16.054,3.516 16.054,6.168 C16.054,8.144 14.754,9.6 12.7,10.068 Z M6.512,3.906 L6.512,8.456 C6.512,9.132 6.98,9.574 7.656,9.574 L9.996,9.574 C11.972,9.574 13.246,8.352 13.246,6.662 C13.246,4.27 11.66,2.866 9.164,2.866 L7.448,2.866 C6.928,2.866 6.512,3.126 6.512,3.906 Z M10.048,18.674 C13.142,18.674 14.598,17.504 14.598,15.32 C14.598,13.058 12.674,10.874 9.034,10.874 L6.512,10.874 L6.512,17.114 C6.512,18.024 7.084,18.674 7.916,18.674 L10.048,18.674 Z M31.654,17.556 C31.654,19.532 32.98,18.648 32.98,19.506 C32.98,20.026 32.304,20.156 31.03,20.156 C29.652,20.156 28.898,19.688 28.924,18.232 C28.196,19.532 26.87,20.26 25.024,20.26 C22.242,20.26 20.188,18.388 20.188,14.592 L20.188,10.094 C20.188,9.028 19.2,8.872 19.2,8.352 L19.2,8.274 C19.2,8.04 19.382,7.858 19.668,7.806 L22.398,7.364 C22.944,7.286 23.282,7.364 23.282,7.754 L23.23,14.878 C23.23,17.608 24.14,19.012 25.83,19.012 C27.39,19.012 28.612,17.634 28.612,15.502 L28.612,10.094 C28.612,9.028 27.598,8.872 27.598,8.352 L27.598,8.274 C27.598,8.04 27.754,7.858 28.04,7.806 L30.822,7.364 C31.368,7.286 31.654,7.364 31.654,7.754 L31.654,17.556 Z M36.984,5.362 C35.684,5.362 34.826,4.556 34.826,3.412 C34.826,2.294 35.684,1.462 36.984,1.462 C38.258,1.462 39.09,2.294 39.09,3.412 C39.09,4.556 38.258,5.362 36.984,5.362 Z M35.06,20 C34.722,20 34.514,19.844 34.514,19.61 L34.514,19.506 C34.514,18.934 35.476,18.83 35.476,17.816 L35.476,11.004 C35.476,9.938 34.514,9.678 34.514,9.21 L34.514,9.132 C34.514,8.924 34.696,8.82 34.982,8.664 L37.582,7.364 C38.18,7.078 38.518,7.39 38.518,7.806 L38.518,17.816 C38.518,18.83 39.584,18.934 39.584,19.506 L39.584,19.61 C39.584,19.844 39.35,20 39.012,20 L35.06,20 Z M41.794,20 C41.456,20 41.248,19.844 41.248,19.61 L41.248,19.532 C41.248,18.934 42.21,18.856 42.21,17.842 L42.21,4.14 C42.21,3.048 41.248,2.84 41.248,2.372 L41.248,2.294 C41.248,2.06 41.43,1.956 41.69,1.826 L44.316,0.526 C44.914,0.24 45.252,0.552 45.252,0.942 L45.252,17.842 C45.252,18.856 46.318,18.934 46.318,19.532 L46.318,19.61 C46.318,19.844 46.084,20 45.746,20 L41.794,20 Z M60.332,17.842 C60.332,18.856 61.32,19.012 61.32,19.558 L61.32,19.636 C61.32,19.87 61.164,20 60.878,20 L58.174,20 C57.862,20 57.68,19.792 57.654,19.506 L57.576,18.596 C56.718,19.688 55.366,20.26 53.936,20.26 C50.764,20.26 47.878,17.79 47.878,13.734 C47.878,9.912 50.582,7.26 53.988,7.26 C55.392,7.26 56.562,7.78 57.394,8.586 L57.394,3.698 C57.394,2.554 56.198,2.528 56.198,1.956 L56.198,1.904 C56.198,1.67 56.38,1.488 56.666,1.384 L59.422,0.5 C60.046,0.292 60.332,0.448 60.332,0.968 L60.332,17.842 Z M54.638,19.272 C55.912,19.272 57.394,18.18 57.394,15.918 L57.394,11.758 C57.394,10.094 55.912,8.248 54.092,8.248 C52.168,8.248 50.894,9.912 50.842,12.668 C50.764,16.204 52.272,19.22 54.638,19.272 Z M79.728,17.66 C79.91,19.35 81.158,18.83 81.158,19.506 C81.158,20 80.17,20.156 79.052,20.156 C77.726,20.156 77.076,19.87 76.972,18.596 C76.374,19.558 75.204,20.26 73.358,20.26 C70.524,20.26 68.496,18.882 68.496,16.334 C68.47,13.786 70.602,12.434 73.228,12.434 C74.502,12.434 75.542,12.772 76.244,13.318 L76.192,12.798 C75.906,9.782 75.282,8.222 73.462,8.222 C71.044,8.222 71.564,11.368 69.926,11.368 C69.146,11.368 68.652,10.9 68.652,10.172 C68.652,8.534 70.68,7.26 73.462,7.26 C76.738,7.26 78.844,9.314 79.208,12.668 L79.728,17.66 Z M74.216,19.272 C75.672,19.272 76.634,18.05 76.556,16.646 L76.478,15.84 C76.374,14.358 75.386,13.422 74.008,13.422 C72.578,13.422 71.564,14.41 71.564,15.97 C71.564,17.738 72.604,19.272 74.216,19.272 Z M95.016,17.816 C95.068,18.856 95.952,18.96 95.952,19.532 L95.952,19.636 C95.952,19.87 95.718,20.026 95.38,20.026 L91.584,20.026 C91.22,20.026 91.012,19.87 91.012,19.636 L91.012,19.532 C91.012,18.96 92,18.856 91.948,17.816 L91.688,12.798 C91.558,9.834 90.544,8.508 88.958,8.508 C87.294,8.508 86.228,9.86 86.228,11.732 L86.228,17.842 C86.228,18.856 87.294,18.96 87.294,19.532 L87.294,19.636 C87.294,19.87 87.086,20.026 86.722,20.026 L82.692,20.026 C82.354,20.026 82.146,19.87 82.146,19.636 L82.146,19.532 C82.146,18.96 83.186,18.856 83.186,17.842 L83.186,10.874 C83.186,9.73 82.016,9.704 82.016,9.132 L82.016,9.054 C82.016,8.846 82.198,8.716 82.484,8.586 L85.006,7.364 C85.552,7.078 85.812,7.39 85.812,7.832 L85.812,9.522 C86.54,8.118 87.97,7.26 89.764,7.26 C92.208,7.26 94.444,8.82 94.704,12.902 L95.016,17.816 Z M109.966,7.52 C110.226,7.52 110.408,7.65 110.408,7.884 L110.408,7.988 C110.408,8.586 109.654,8.69 109.16,9.808 L104.246,20.572 C103.336,22.626 102.036,25.538 99.436,25.538 C97.278,25.538 95.926,24.16 95.926,22.99 C95.926,22.236 96.394,21.69 97.2,21.69 C98.942,21.69 98.422,24.472 99.904,24.472 C100.918,24.472 102.01,22.6 102.816,20.598 L97.746,9.808 C97.2,8.664 96.42,8.586 96.42,7.988 L96.42,7.884 C96.42,7.65 96.628,7.52 96.888,7.52 L100.996,7.52 C101.256,7.52 101.438,7.676 101.438,7.91 L101.438,7.988 C101.438,8.586 100.476,8.612 101.022,9.834 L104.454,17.712 L107.678,10.12 C108.302,8.638 106.612,8.586 106.612,7.988 L106.612,7.91 C106.612,7.676 106.794,7.52 107.08,7.52 L109.966,7.52 Z" id="Build-any" fill="#BC4681"></path>
            </g>
        </g>
    </g>
</svg>