<?xml version="1.0" encoding="UTF-8"?>
<svg width="141px" height="59px" viewBox="0 0 141 59" version="1.1" xmlns="http://www.w3.org/2000/svg" xmlns:xlink="http://www.w3.org/1999/xlink">
    <!-- Generator: Sketch 52.6 (67491) - http://www.bohemiancoding.com/sketch -->
    <title>Group</title>
    <desc>Created with Sketch.</desc>
    <g id="Text-Heavy" stroke="none" stroke-width="1" fill="none" fill-rule="evenodd">
        <g id="728x90/728x90_1" transform="translate(-273.000000, -16.000000)">
            <g id="Group" transform="translate(273.000000, 16.000000)">
                <path d="M8.216,40.26 C11.336,40.26 14.248,42.6 14.248,46.552 C14.248,50.504 11.518,53.26 8.242,53.26 C6.812,53.26 5.668,52.766 4.81,51.882 L4.81,56.588 C4.81,57.628 5.876,57.732 5.876,58.304 L5.876,58.382 C5.876,58.642 5.642,58.772 5.304,58.772 L1.352,58.772 C1.014,58.772 0.78,58.642 0.78,58.382 L0.78,58.304 C0.78,57.732 1.768,57.628 1.768,56.588 L1.768,43.848 C1.768,42.86 0.65,42.808 0.65,42.21 L0.65,42.106 C0.65,41.872 0.832,41.69 1.118,41.56 L3.51,40.39 C4.134,40.078 4.368,40.364 4.368,40.806 L4.342,42.236 C5.07,40.988 6.5,40.26 8.216,40.26 Z M7.878,52.272 C9.932,52.272 11.18,50.556 11.18,47.514 C11.18,43.796 9.698,41.248 7.462,41.248 C6.136,41.248 4.992,42.314 4.81,43.77 L4.81,48.58 C4.81,50.478 6.292,52.272 7.878,52.272 Z M22.88,53.26 C18.46,53.26 15.834,50.088 15.834,46.63 C15.834,42.938 18.72,40.26 22.282,40.26 C26.39,40.26 29.146,43.25 29.146,46.838 C29.146,50.4 26.65,53.26 22.88,53.26 Z M23.27,52.272 C24.882,52.272 26.078,50.712 26.078,47.904 C26.078,44.264 24.336,41.248 21.944,41.248 C20.098,41.248 18.902,42.756 18.902,45.616 C18.902,48.84 20.644,52.272 23.27,52.272 Z M38.038,40.26 C39.572,40.26 40.43,41.248 40.43,42.444 C40.43,43.328 40.066,44.082 39.078,44.082 C37.388,44.082 38.168,42.054 36.66,42.054 C35.438,42.054 34.866,43.588 34.866,45.278 L34.866,50.842 C34.866,51.856 36.062,51.96 36.062,52.532 L36.062,52.636 C36.062,52.87 35.854,53 35.516,53 L31.486,53 C31.148,53 30.94,52.87 30.94,52.636 L30.94,52.532 C30.94,51.96 31.928,51.856 31.928,50.842 L31.928,43.848 C31.928,42.782 30.81,42.73 30.81,42.158 L30.81,42.08 C30.81,41.872 30.992,41.69 31.278,41.534 L33.826,40.364 C34.372,40.104 34.58,40.364 34.58,40.806 L34.58,42.834 C35.152,41.17 36.374,40.26 38.038,40.26 Z M46.254,53.26 C44.07,53.26 42.614,51.856 42.614,49.048 L42.614,41.794 L41.132,41.794 C40.872,41.794 40.69,41.612 40.69,41.352 L40.69,40.988 C40.69,40.702 40.846,40.52 41.132,40.52 L41.938,40.52 C43.29,40.52 44.096,39.506 44.304,37.998 C44.356,37.634 44.564,37.426 44.824,37.426 L45.214,37.426 C45.552,37.426 45.708,37.634 45.708,37.998 L45.734,40.52 L49.01,40.52 C49.27,40.52 49.478,40.728 49.478,40.988 L49.478,41.352 C49.478,41.612 49.27,41.794 49.01,41.794 L45.734,41.794 L45.734,49.074 C45.734,50.322 46.358,50.998 47.216,50.998 C48.308,50.998 48.906,50.4 49.062,49.646 C49.296,49.23 49.92,49.308 49.92,49.776 C49.92,51.518 48.594,53.26 46.254,53.26 Z M57.356,33.89 C59.332,33.89 61.022,35.164 61.022,36.698 C61.022,37.218 60.606,37.816 59.826,37.816 C57.226,37.816 58.994,34.878 56.784,34.852 C54.99,34.826 54.99,37.66 55.666,40.52 L59.098,40.52 C59.358,40.52 59.54,40.728 59.54,40.962 L59.54,41.378 C59.54,41.612 59.358,41.794 59.098,41.794 L55.77,41.794 L55.77,50.816 C55.77,51.856 57.018,51.96 57.018,52.532 L57.018,52.636 C57.018,52.844 56.836,53 56.576,53 L52.182,53 C51.896,53 51.714,52.844 51.714,52.636 L51.714,52.532 C51.714,51.96 52.728,51.856 52.728,50.816 L52.728,41.794 L50.726,41.794 C50.466,41.794 50.258,41.612 50.258,41.378 L50.258,40.962 C50.258,40.728 50.466,40.52 50.726,40.52 L52.728,40.52 L52.728,38.57 C52.728,35.918 54.262,33.89 57.356,33.89 Z M67.236,53.26 C62.816,53.26 60.19,50.088 60.19,46.63 C60.19,42.938 63.076,40.26 66.638,40.26 C70.746,40.26 73.502,43.25 73.502,46.838 C73.502,50.4 71.006,53.26 67.236,53.26 Z M67.626,52.272 C69.238,52.272 70.434,50.712 70.434,47.904 C70.434,44.264 68.692,41.248 66.3,41.248 C64.454,41.248 63.258,42.756 63.258,45.616 C63.258,48.84 65,52.272 67.626,52.272 Z M75.686,53 C75.348,53 75.14,52.844 75.14,52.61 L75.14,52.532 C75.14,51.934 76.102,51.856 76.102,50.842 L76.102,37.14 C76.102,36.048 75.14,35.84 75.14,35.372 L75.14,35.294 C75.14,35.06 75.322,34.956 75.582,34.826 L78.208,33.526 C78.806,33.24 79.144,33.552 79.144,33.942 L79.144,50.842 C79.144,51.856 80.21,51.934 80.21,52.532 L80.21,52.61 C80.21,52.844 79.976,53 79.638,53 L75.686,53 Z M84.448,38.362 C83.148,38.362 82.29,37.556 82.29,36.412 C82.29,35.294 83.148,34.462 84.448,34.462 C85.722,34.462 86.554,35.294 86.554,36.412 C86.554,37.556 85.722,38.362 84.448,38.362 Z M82.524,53 C82.186,53 81.978,52.844 81.978,52.61 L81.978,52.506 C81.978,51.934 82.94,51.83 82.94,50.816 L82.94,44.004 C82.94,42.938 81.978,42.678 81.978,42.21 L81.978,42.132 C81.978,41.924 82.16,41.82 82.446,41.664 L85.046,40.364 C85.644,40.078 85.982,40.39 85.982,40.806 L85.982,50.816 C85.982,51.83 87.048,51.934 87.048,52.506 L87.048,52.61 C87.048,52.844 86.814,53 86.476,53 L82.524,53 Z M95.68,53.26 C91.26,53.26 88.634,50.088 88.634,46.63 C88.634,42.938 91.52,40.26 95.082,40.26 C99.19,40.26 101.946,43.25 101.946,46.838 C101.946,50.4 99.45,53.26 95.68,53.26 Z M96.07,52.272 C97.682,52.272 98.878,50.712 98.878,47.904 C98.878,44.264 97.136,41.248 94.744,41.248 C92.898,41.248 91.702,42.756 91.702,45.616 C91.702,48.84 93.444,52.272 96.07,52.272 Z M105.872,53.26 C104.754,53.26 103.844,52.636 103.844,51.414 C103.844,50.166 104.754,49.542 105.872,49.542 C106.964,49.542 107.874,50.166 107.874,51.414 C107.874,52.636 106.964,53.26 105.872,53.26 Z" id="portfolio." fill="#016087"></path>
                <path d="M1.95,19 C1.612,19 1.378,18.87 1.378,18.636 L1.378,18.558 C1.378,17.986 2.366,17.856 2.366,16.842 L2.366,2.698 C2.366,1.684 1.378,1.554 1.378,0.982 L1.378,0.904 C1.378,0.67 1.612,0.54 1.95,0.54 L7.67,0.54 C14.092,0.54 18.616,4.492 18.616,9.692 C18.616,15.438 14.482,19 8.84,19 L1.95,19 Z M7.02,17.674 L8.658,17.674 C12.532,17.674 15.392,15.1 15.392,10.862 C15.392,5.688 11.778,1.866 7.072,1.866 L6.344,1.866 C5.85,1.866 5.46,2.126 5.46,2.828 L5.46,15.828 C5.46,16.998 6.058,17.674 7.02,17.674 Z M30.888,15.178 C31.174,14.814 31.772,14.918 31.72,15.438 C31.486,16.972 29.744,19.26 26.442,19.26 C22.958,19.26 20.28,16.686 20.28,12.656 C20.28,8.938 23.062,6.26 26.494,6.26 C29.848,6.26 31.356,8.262 31.356,10.082 C31.356,11.07 30.836,11.616 30.03,11.902 L23.738,14.216 C24.388,15.984 25.714,17.076 27.56,17.076 C29.198,17.076 30.368,16.218 30.888,15.178 Z M25.974,7.248 C24.336,7.248 23.296,8.99 23.296,11.486 C23.296,12.084 23.348,12.63 23.452,13.15 L27.768,11.278 C28.236,11.07 28.444,10.706 28.444,10.186 C28.444,9.12 27.482,7.248 25.974,7.248 Z M38.48,19.234 C35.074,19.234 33.046,17.674 33.046,16.244 C33.046,15.438 33.592,15.048 34.346,15.048 C36.296,15.048 35.438,18.35 38.48,18.35 C39.858,18.35 40.872,17.674 40.872,16.348 C40.872,12.838 33.306,15.152 33.306,9.952 C33.306,7.846 35.412,6.26 38.402,6.26 C41.652,6.26 43.602,7.846 43.602,9.354 C43.602,10.004 43.082,10.472 42.406,10.472 C40.586,10.472 41.288,7.196 38.558,7.196 C37.284,7.196 36.374,8.08 36.374,9.198 C36.374,12.734 43.94,10.472 43.94,15.62 C43.94,17.648 41.834,19.234 38.48,19.234 Z M48.074,4.362 C46.774,4.362 45.916,3.556 45.916,2.412 C45.916,1.294 46.774,0.462 48.074,0.462 C49.348,0.462 50.18,1.294 50.18,2.412 C50.18,3.556 49.348,4.362 48.074,4.362 Z M46.15,19 C45.812,19 45.604,18.844 45.604,18.61 L45.604,18.506 C45.604,17.934 46.566,17.83 46.566,16.816 L46.566,10.004 C46.566,8.938 45.604,8.678 45.604,8.21 L45.604,8.132 C45.604,7.924 45.786,7.82 46.072,7.664 L48.672,6.364 C49.27,6.078 49.608,6.39 49.608,6.806 L49.608,16.816 C49.608,17.83 50.674,17.934 50.674,18.506 L50.674,18.61 C50.674,18.844 50.44,19 50.102,19 L46.15,19 Z M63.57,6.52 C64.714,6.52 64.922,6.858 64.688,7.248 C64.376,7.924 63.44,7.82 62.66,8.028 C63.622,8.886 64.298,10.212 64.298,11.486 C64.298,13.566 63.128,15.23 61.282,16.088 C63.544,16.608 64.506,17.778 64.506,19.208 C64.506,21.522 61.828,22.978 58.24,22.978 C54.314,22.978 52.234,21.054 52.234,19.208 C52.234,18.584 52.624,17.986 53.482,17.986 C55.406,17.986 54.652,21.99 58.344,22.016 C60.216,22.016 61.438,20.924 61.438,19.338 C61.438,17.856 60.58,16.816 59.15,16.66 C58.838,16.686 58.526,16.712 58.188,16.712 C54.886,16.712 52.338,14.502 52.338,11.616 C52.338,8.47 54.756,6.26 58.318,6.26 C60.034,6.26 60.606,6.52 63.57,6.52 Z M55.354,10.29 C55.354,13.228 56.862,15.698 58.682,15.698 C60.294,15.698 61.282,14.398 61.282,12.63 C61.282,9.796 59.904,7.248 57.824,7.248 C56.29,7.248 55.354,8.522 55.354,10.29 Z M79.352,16.816 C79.404,17.856 80.288,17.96 80.288,18.532 L80.288,18.636 C80.288,18.87 80.054,19.026 79.716,19.026 L75.92,19.026 C75.556,19.026 75.348,18.87 75.348,18.636 L75.348,18.532 C75.348,17.96 76.336,17.856 76.284,16.816 L76.024,11.798 C75.894,8.834 74.88,7.508 73.294,7.508 C71.63,7.508 70.564,8.86 70.564,10.732 L70.564,16.842 C70.564,17.856 71.63,17.96 71.63,18.532 L71.63,18.636 C71.63,18.87 71.422,19.026 71.058,19.026 L67.028,19.026 C66.69,19.026 66.482,18.87 66.482,18.636 L66.482,18.532 C66.482,17.96 67.522,17.856 67.522,16.842 L67.522,9.874 C67.522,8.73 66.352,8.704 66.352,8.132 L66.352,8.054 C66.352,7.846 66.534,7.716 66.82,7.586 L69.342,6.364 C69.888,6.078 70.148,6.39 70.148,6.832 L70.148,8.522 C70.876,7.118 72.306,6.26 74.1,6.26 C76.544,6.26 78.78,7.82 79.04,11.902 L79.352,16.816 Z M99.892,6.52 C100.152,6.52 100.334,6.65 100.334,6.884 L100.334,6.988 C100.334,7.586 99.58,7.69 99.086,8.808 L94.172,19.572 C93.262,21.626 91.962,24.538 89.362,24.538 C87.204,24.538 85.852,23.16 85.852,21.99 C85.852,21.236 86.32,20.69 87.126,20.69 C88.868,20.69 88.348,23.472 89.83,23.472 C90.844,23.472 91.936,21.6 92.742,19.598 L87.672,8.808 C87.126,7.664 86.346,7.586 86.346,6.988 L86.346,6.884 C86.346,6.65 86.554,6.52 86.814,6.52 L90.922,6.52 C91.182,6.52 91.364,6.676 91.364,6.91 L91.364,6.988 C91.364,7.586 90.402,7.612 90.948,8.834 L94.38,16.712 L97.604,9.12 C98.228,7.638 96.538,7.586 96.538,6.988 L96.538,6.91 C96.538,6.676 96.72,6.52 97.006,6.52 L99.892,6.52 Z M108.108,19.26 C103.688,19.26 101.062,16.088 101.062,12.63 C101.062,8.938 103.948,6.26 107.51,6.26 C111.618,6.26 114.374,9.25 114.374,12.838 C114.374,16.4 111.878,19.26 108.108,19.26 Z M108.498,18.272 C110.11,18.272 111.306,16.712 111.306,13.904 C111.306,10.264 109.564,7.248 107.172,7.248 C105.326,7.248 104.13,8.756 104.13,11.616 C104.13,14.84 105.872,18.272 108.498,18.272 Z M128.258,16.556 C128.258,18.532 129.584,17.648 129.584,18.506 C129.584,19.026 128.908,19.156 127.634,19.156 C126.256,19.156 125.502,18.688 125.528,17.232 C124.8,18.532 123.474,19.26 121.628,19.26 C118.846,19.26 116.792,17.388 116.792,13.592 L116.792,9.094 C116.792,8.028 115.804,7.872 115.804,7.352 L115.804,7.274 C115.804,7.04 115.986,6.858 116.272,6.806 L119.002,6.364 C119.548,6.286 119.886,6.364 119.886,6.754 L119.834,13.878 C119.834,16.608 120.744,18.012 122.434,18.012 C123.994,18.012 125.216,16.634 125.216,14.502 L125.216,9.094 C125.216,8.028 124.202,7.872 124.202,7.352 L124.202,7.274 C124.202,7.04 124.358,6.858 124.644,6.806 L127.426,6.364 C127.972,6.286 128.258,6.364 128.258,6.754 L128.258,16.556 Z M138.216,6.26 C139.75,6.26 140.608,7.248 140.608,8.444 C140.608,9.328 140.244,10.082 139.256,10.082 C137.566,10.082 138.346,8.054 136.838,8.054 C135.616,8.054 135.044,9.588 135.044,11.278 L135.044,16.842 C135.044,17.856 136.24,17.96 136.24,18.532 L136.24,18.636 C136.24,18.87 136.032,19 135.694,19 L131.664,19 C131.326,19 131.118,18.87 131.118,18.636 L131.118,18.532 C131.118,17.96 132.106,17.856 132.106,16.842 L132.106,9.848 C132.106,8.782 130.988,8.73 130.988,8.158 L130.988,8.08 C130.988,7.872 131.17,7.69 131.456,7.534 L134.004,6.364 C134.55,6.104 134.758,6.364 134.758,6.806 L134.758,8.834 C135.33,7.17 136.552,6.26 138.216,6.26 Z" id="Design-your" fill="#BC4681"></path>
            </g>
        </g>
    </g>
</svg>