<?xml version="1.0" encoding="UTF-8"?>
<svg width="107px" height="55px" viewBox="0 0 107 55" version="1.1" xmlns="http://www.w3.org/2000/svg" xmlns:xlink="http://www.w3.org/1999/xlink">
    <!-- Generator: Sketch 52.6 (67491) - http://www.bohemiancoding.com/sketch -->
    <title>10</title>
    <desc>Created with Sketch.</desc>
    <g id="Text-Heavy" stroke="none" stroke-width="1" fill="none" fill-rule="evenodd">
        <g id="728x90/728x90_1" transform="translate(-126.000000, -15.000000)">
            <g id="10" transform="translate(126.000000, 15.000000)">
                <path d="M8.216,41.26 C11.336,41.26 14.248,43.6 14.248,47.552 C14.248,51.504 11.518,54.26 8.242,54.26 C6.682,54.26 5.434,53.662 4.55,52.622 L4.576,53.558 C4.576,53.896 4.394,54.052 4.056,54.052 L1.248,54 C0.962,54 0.78,53.87 0.78,53.636 L0.78,53.558 C0.78,53.012 1.768,52.856 1.768,51.816 L1.768,38.166 C1.768,37.048 0.65,36.97 0.65,36.398 L0.65,36.32 C0.65,36.086 0.78,35.982 1.17,35.8 L3.848,34.526 C4.394,34.266 4.784,34.422 4.784,34.968 L4.784,42.638 C5.59,41.754 6.812,41.26 8.216,41.26 Z M7.878,53.272 C9.932,53.272 11.18,51.556 11.18,48.514 C11.18,44.796 9.698,42.248 7.462,42.248 C6.006,42.248 4.784,43.522 4.784,45.186 L4.784,49.58 C4.784,51.478 6.292,53.272 7.878,53.272 Z M28.08,51.556 C28.08,53.532 29.406,52.648 29.406,53.506 C29.406,54.026 28.73,54.156 27.456,54.156 C26.078,54.156 25.324,53.688 25.35,52.232 C24.622,53.532 23.296,54.26 21.45,54.26 C18.668,54.26 16.614,52.388 16.614,48.592 L16.614,44.094 C16.614,43.028 15.626,42.872 15.626,42.352 L15.626,42.274 C15.626,42.04 15.808,41.858 16.094,41.806 L18.824,41.364 C19.37,41.286 19.708,41.364 19.708,41.754 L19.656,48.878 C19.656,51.608 20.566,53.012 22.256,53.012 C23.816,53.012 25.038,51.634 25.038,49.502 L25.038,44.094 C25.038,43.028 24.024,42.872 24.024,42.352 L24.024,42.274 C24.024,42.04 24.18,41.858 24.466,41.806 L27.248,41.364 C27.794,41.286 28.08,41.364 28.08,41.754 L28.08,51.556 Z M36.114,54.234 C32.708,54.234 30.68,52.674 30.68,51.244 C30.68,50.438 31.226,50.048 31.98,50.048 C33.93,50.048 33.072,53.35 36.114,53.35 C37.492,53.35 38.506,52.674 38.506,51.348 C38.506,47.838 30.94,50.152 30.94,44.952 C30.94,42.846 33.046,41.26 36.036,41.26 C39.286,41.26 41.236,42.846 41.236,44.354 C41.236,45.004 40.716,45.472 40.04,45.472 C38.22,45.472 38.922,42.196 36.192,42.196 C34.918,42.196 34.008,43.08 34.008,44.198 C34.008,47.734 41.574,45.472 41.574,50.62 C41.574,52.648 39.468,54.234 36.114,54.234 Z M45.708,39.362 C44.408,39.362 43.55,38.556 43.55,37.412 C43.55,36.294 44.408,35.462 45.708,35.462 C46.982,35.462 47.814,36.294 47.814,37.412 C47.814,38.556 46.982,39.362 45.708,39.362 Z M43.784,54 C43.446,54 43.238,53.844 43.238,53.61 L43.238,53.506 C43.238,52.934 44.2,52.83 44.2,51.816 L44.2,45.004 C44.2,43.938 43.238,43.678 43.238,43.21 L43.238,43.132 C43.238,42.924 43.42,42.82 43.706,42.664 L46.306,41.364 C46.904,41.078 47.242,41.39 47.242,41.806 L47.242,51.816 C47.242,52.83 48.308,52.934 48.308,53.506 L48.308,53.61 C48.308,53.844 48.074,54 47.736,54 L43.784,54 Z M62.972,51.816 C63.024,52.856 63.908,52.96 63.908,53.532 L63.908,53.636 C63.908,53.87 63.674,54.026 63.336,54.026 L59.54,54.026 C59.176,54.026 58.968,53.87 58.968,53.636 L58.968,53.532 C58.968,52.96 59.956,52.856 59.904,51.816 L59.644,46.798 C59.514,43.834 58.5,42.508 56.914,42.508 C55.25,42.508 54.184,43.86 54.184,45.732 L54.184,51.842 C54.184,52.856 55.25,52.96 55.25,53.532 L55.25,53.636 C55.25,53.87 55.042,54.026 54.678,54.026 L50.648,54.026 C50.31,54.026 50.102,53.87 50.102,53.636 L50.102,53.532 C50.102,52.96 51.142,52.856 51.142,51.842 L51.142,44.874 C51.142,43.73 49.972,43.704 49.972,43.132 L49.972,43.054 C49.972,42.846 50.154,42.716 50.44,42.586 L52.962,41.364 C53.508,41.078 53.768,41.39 53.768,41.832 L53.768,43.522 C54.496,42.118 55.926,41.26 57.72,41.26 C60.164,41.26 62.4,42.82 62.66,46.902 L62.972,51.816 Z M75.816,50.178 C76.102,49.814 76.7,49.918 76.648,50.438 C76.414,51.972 74.672,54.26 71.37,54.26 C67.886,54.26 65.208,51.686 65.208,47.656 C65.208,43.938 67.99,41.26 71.422,41.26 C74.776,41.26 76.284,43.262 76.284,45.082 C76.284,46.07 75.764,46.616 74.958,46.902 L68.666,49.216 C69.316,50.984 70.642,52.076 72.488,52.076 C74.126,52.076 75.296,51.218 75.816,50.178 Z M70.902,42.248 C69.264,42.248 68.224,43.99 68.224,46.486 C68.224,47.084 68.276,47.63 68.38,48.15 L72.696,46.278 C73.164,46.07 73.372,45.706 73.372,45.186 C73.372,44.12 72.41,42.248 70.902,42.248 Z M83.408,54.234 C80.002,54.234 77.974,52.674 77.974,51.244 C77.974,50.438 78.52,50.048 79.274,50.048 C81.224,50.048 80.366,53.35 83.408,53.35 C84.786,53.35 85.8,52.674 85.8,51.348 C85.8,47.838 78.234,50.152 78.234,44.952 C78.234,42.846 80.34,41.26 83.33,41.26 C86.58,41.26 88.53,42.846 88.53,44.354 C88.53,45.004 88.01,45.472 87.334,45.472 C85.514,45.472 86.216,42.196 83.486,42.196 C82.212,42.196 81.302,43.08 81.302,44.198 C81.302,47.734 88.868,45.472 88.868,50.62 C88.868,52.648 86.762,54.234 83.408,54.234 Z M95.706,54.234 C92.3,54.234 90.272,52.674 90.272,51.244 C90.272,50.438 90.818,50.048 91.572,50.048 C93.522,50.048 92.664,53.35 95.706,53.35 C97.084,53.35 98.098,52.674 98.098,51.348 C98.098,47.838 90.532,50.152 90.532,44.952 C90.532,42.846 92.638,41.26 95.628,41.26 C98.878,41.26 100.828,42.846 100.828,44.354 C100.828,45.004 100.308,45.472 99.632,45.472 C97.812,45.472 98.514,42.196 95.784,42.196 C94.51,42.196 93.6,43.08 93.6,44.198 C93.6,47.734 101.166,45.472 101.166,50.62 C101.166,52.648 99.06,54.234 95.706,54.234 Z M104.962,54.26 C103.844,54.26 102.934,53.636 102.934,52.414 C102.934,51.166 103.844,50.542 104.962,50.542 C106.054,50.542 106.964,51.166 106.964,52.414 C106.964,53.636 106.054,54.26 104.962,54.26 Z" id="business." fill="#016087"></path>
                <path d="M1.95,20 C1.612,20 1.404,19.844 1.404,19.636 L1.404,19.558 C1.404,18.986 2.366,18.856 2.366,17.842 L2.366,3.698 C2.366,2.658 1.404,2.58 1.404,1.982 L1.404,1.904 C1.404,1.67 1.612,1.54 1.95,1.54 L6.032,1.54 C6.37,1.54 6.604,1.67 6.604,1.904 L6.604,1.982 C6.604,2.58 5.538,2.658 5.538,3.698 L5.538,17.452 C5.538,18.128 5.85,18.674 6.5,18.674 L11.258,18.674 C13,18.674 13.338,15.554 14.352,15.554 L14.612,15.554 C14.898,15.554 15.054,15.736 14.976,16.074 L14.326,19.324 C14.222,19.766 14.04,20 13.572,20 L1.95,20 Z M27.326,17.66 C27.508,19.35 28.756,18.83 28.756,19.506 C28.756,20 27.768,20.156 26.65,20.156 C25.324,20.156 24.674,19.87 24.57,18.596 C23.972,19.558 22.802,20.26 20.956,20.26 C18.122,20.26 16.094,18.882 16.094,16.334 C16.068,13.786 18.2,12.434 20.826,12.434 C22.1,12.434 23.14,12.772 23.842,13.318 L23.79,12.798 C23.504,9.782 22.88,8.222 21.06,8.222 C18.642,8.222 19.162,11.368 17.524,11.368 C16.744,11.368 16.25,10.9 16.25,10.172 C16.25,8.534 18.278,7.26 21.06,7.26 C24.336,7.26 26.442,9.314 26.806,12.668 L27.326,17.66 Z M21.814,19.272 C23.27,19.272 24.232,18.05 24.154,16.646 L24.076,15.84 C23.972,14.358 22.984,13.422 21.606,13.422 C20.176,13.422 19.162,14.41 19.162,15.97 C19.162,17.738 20.202,19.272 21.814,19.272 Z M41.86,17.556 C41.86,19.532 43.186,18.648 43.186,19.506 C43.186,20.026 42.51,20.156 41.236,20.156 C39.858,20.156 39.104,19.688 39.13,18.232 C38.402,19.532 37.076,20.26 35.23,20.26 C32.448,20.26 30.394,18.388 30.394,14.592 L30.394,10.094 C30.394,9.028 29.406,8.872 29.406,8.352 L29.406,8.274 C29.406,8.04 29.588,7.858 29.874,7.806 L32.604,7.364 C33.15,7.286 33.488,7.364 33.488,7.754 L33.436,14.878 C33.436,17.608 34.346,19.012 36.036,19.012 C37.596,19.012 38.818,17.634 38.818,15.502 L38.818,10.094 C38.818,9.028 37.804,8.872 37.804,8.352 L37.804,8.274 C37.804,8.04 37.96,7.858 38.246,7.806 L41.028,7.364 C41.574,7.286 41.86,7.364 41.86,7.754 L41.86,17.556 Z M57.564,17.816 C57.616,18.856 58.5,18.96 58.5,19.532 L58.5,19.636 C58.5,19.87 58.266,20.026 57.928,20.026 L54.132,20.026 C53.768,20.026 53.56,19.87 53.56,19.636 L53.56,19.532 C53.56,18.96 54.548,18.856 54.496,17.816 L54.236,12.798 C54.106,9.834 53.092,8.508 51.506,8.508 C49.842,8.508 48.776,9.86 48.776,11.732 L48.776,17.842 C48.776,18.856 49.842,18.96 49.842,19.532 L49.842,19.636 C49.842,19.87 49.634,20.026 49.27,20.026 L45.24,20.026 C44.902,20.026 44.694,19.87 44.694,19.636 L44.694,19.532 C44.694,18.96 45.734,18.856 45.734,17.842 L45.734,10.874 C45.734,9.73 44.564,9.704 44.564,9.132 L44.564,9.054 C44.564,8.846 44.746,8.716 45.032,8.586 L47.554,7.364 C48.1,7.078 48.36,7.39 48.36,7.832 L48.36,9.522 C49.088,8.118 50.518,7.26 52.312,7.26 C54.756,7.26 56.992,8.82 57.252,12.902 L57.564,17.816 Z M66.274,20.26 C62.504,20.26 59.592,17.348 59.592,13.708 C59.592,9.756 62.608,7.286 66.144,7.26 C69.056,7.234 71.37,8.95 71.37,10.692 C71.37,11.29 71.006,11.836 70.044,11.81 C68.172,11.706 68.25,8.248 65.65,8.248 C63.83,8.248 62.66,10.016 62.66,12.252 C62.66,15.814 64.506,18.102 67.288,18.102 C68.978,18.102 70.07,17.088 70.642,15.97 C70.902,15.58 71.552,15.658 71.474,16.204 C71.214,18.232 69.472,20.26 66.274,20.26 Z M85.748,17.79 C85.826,18.83 86.684,18.934 86.684,19.532 L86.684,19.636 C86.684,19.87 86.476,20 86.138,20 L82.316,20 C81.978,20 81.77,19.87 81.77,19.636 L81.77,19.532 C81.77,18.934 82.758,18.83 82.706,17.816 L82.446,12.668 C82.316,9.834 81.302,8.508 79.716,8.508 C78.052,8.508 76.986,9.86 76.986,11.732 L76.986,17.842 C76.986,18.856 78.052,18.934 78.052,19.532 L78.052,19.61 C78.052,19.844 77.818,20 77.48,20 L73.45,20 C73.112,20 72.904,19.844 72.904,19.61 L72.904,19.532 C72.904,18.934 73.944,18.856 73.944,17.842 L73.944,4.036 C73.944,2.944 72.852,2.866 72.852,2.346 L72.852,2.268 C72.852,2.034 73.008,1.852 73.294,1.722 L76.076,0.5 C76.596,0.266 76.908,0.448 76.908,0.916 L76.882,9.002 C77.662,7.91 78.962,7.26 80.522,7.26 C82.966,7.26 85.202,8.82 85.436,12.746 L85.748,17.79 Z M104.91,17.66 C105.092,19.35 106.34,18.83 106.34,19.506 C106.34,20 105.352,20.156 104.234,20.156 C102.908,20.156 102.258,19.87 102.154,18.596 C101.556,19.558 100.386,20.26 98.54,20.26 C95.706,20.26 93.678,18.882 93.678,16.334 C93.652,13.786 95.784,12.434 98.41,12.434 C99.684,12.434 100.724,12.772 101.426,13.318 L101.374,12.798 C101.088,9.782 100.464,8.222 98.644,8.222 C96.226,8.222 96.746,11.368 95.108,11.368 C94.328,11.368 93.834,10.9 93.834,10.172 C93.834,8.534 95.862,7.26 98.644,7.26 C101.92,7.26 104.026,9.314 104.39,12.668 L104.91,17.66 Z M99.398,19.272 C100.854,19.272 101.816,18.05 101.738,16.646 L101.66,15.84 C101.556,14.358 100.568,13.422 99.19,13.422 C97.76,13.422 96.746,14.41 96.746,15.97 C96.746,17.738 97.786,19.272 99.398,19.272 Z" id="Launch-a" fill="#BC4681"></path>
            </g>
        </g>
    </g>
</svg>