<?xml version="1.0" encoding="UTF-8"?>
<svg width="83px" height="54px" viewBox="0 0 83 54" version="1.1" xmlns="http://www.w3.org/2000/svg" xmlns:xlink="http://www.w3.org/1999/xlink">
    <!-- Generator: Sketch 52.6 (67491) - http://www.bohemiancoding.com/sketch -->
    <title>open 9</title>
    <desc>Created with Sketch.</desc>
    <g id="Text-Heavy" stroke="none" stroke-width="1" fill="none" fill-rule="evenodd">
        <g id="728x90/728x90_1" transform="translate(-16.000000, -16.000000)">
            <g id="open-9" transform="translate(16.000000, 16.000000)">
                <path d="M6.162,53.234 C2.756,53.234 0.728,51.674 0.728,50.244 C0.728,49.438 1.274,49.048 2.028,49.048 C3.978,49.048 3.12,52.35 6.162,52.35 C7.54,52.35 8.554,51.674 8.554,50.348 C8.554,46.838 0.988,49.152 0.988,43.952 C0.988,41.846 3.094,40.26 6.084,40.26 C9.334,40.26 11.284,41.846 11.284,43.354 C11.284,44.004 10.764,44.472 10.088,44.472 C8.268,44.472 8.97,41.196 6.24,41.196 C4.966,41.196 4.056,42.08 4.056,43.198 C4.056,46.734 11.622,44.472 11.622,49.62 C11.622,51.648 9.516,53.234 6.162,53.234 Z M18.07,53.26 C15.886,53.26 14.43,51.856 14.43,49.048 L14.43,41.794 L12.948,41.794 C12.688,41.794 12.506,41.612 12.506,41.352 L12.506,40.988 C12.506,40.702 12.662,40.52 12.948,40.52 L13.754,40.52 C15.106,40.52 15.912,39.506 16.12,37.998 C16.172,37.634 16.38,37.426 16.64,37.426 L17.03,37.426 C17.368,37.426 17.524,37.634 17.524,37.998 L17.55,40.52 L20.826,40.52 C21.086,40.52 21.294,40.728 21.294,40.988 L21.294,41.352 C21.294,41.612 21.086,41.794 20.826,41.794 L17.55,41.794 L17.55,49.074 C17.55,50.322 18.174,50.998 19.032,50.998 C20.124,50.998 20.722,50.4 20.878,49.646 C21.112,49.23 21.736,49.308 21.736,49.776 C21.736,51.518 20.41,53.26 18.07,53.26 Z M29.77,53.26 C25.35,53.26 22.724,50.088 22.724,46.63 C22.724,42.938 25.61,40.26 29.172,40.26 C33.28,40.26 36.036,43.25 36.036,46.838 C36.036,50.4 33.54,53.26 29.77,53.26 Z M30.16,52.272 C31.772,52.272 32.968,50.712 32.968,47.904 C32.968,44.264 31.226,41.248 28.834,41.248 C26.988,41.248 25.792,42.756 25.792,45.616 C25.792,48.84 27.534,52.272 30.16,52.272 Z M44.928,40.26 C46.462,40.26 47.32,41.248 47.32,42.444 C47.32,43.328 46.956,44.082 45.968,44.082 C44.278,44.082 45.058,42.054 43.55,42.054 C42.328,42.054 41.756,43.588 41.756,45.278 L41.756,50.842 C41.756,51.856 42.952,51.96 42.952,52.532 L42.952,52.636 C42.952,52.87 42.744,53 42.406,53 L38.376,53 C38.038,53 37.83,52.87 37.83,52.636 L37.83,52.532 C37.83,51.96 38.818,51.856 38.818,50.842 L38.818,43.848 C38.818,42.782 37.7,42.73 37.7,42.158 L37.7,42.08 C37.7,41.872 37.882,41.69 38.168,41.534 L40.716,40.364 C41.262,40.104 41.47,40.364 41.47,40.806 L41.47,42.834 C42.042,41.17 43.264,40.26 44.928,40.26 Z M58.76,49.178 C59.046,48.814 59.644,48.918 59.592,49.438 C59.358,50.972 57.616,53.26 54.314,53.26 C50.83,53.26 48.152,50.686 48.152,46.656 C48.152,42.938 50.934,40.26 54.366,40.26 C57.72,40.26 59.228,42.262 59.228,44.082 C59.228,45.07 58.708,45.616 57.902,45.902 L51.61,48.216 C52.26,49.984 53.586,51.076 55.432,51.076 C57.07,51.076 58.24,50.218 58.76,49.178 Z M53.846,41.248 C52.208,41.248 51.168,42.99 51.168,45.486 C51.168,46.084 51.22,46.63 51.324,47.15 L55.64,45.278 C56.108,45.07 56.316,44.706 56.316,44.186 C56.316,43.12 55.354,41.248 53.846,41.248 Z M63.31,53.26 C62.192,53.26 61.282,52.636 61.282,51.414 C61.282,50.166 62.192,49.542 63.31,49.542 C64.402,49.542 65.312,50.166 65.312,51.414 C65.312,52.636 64.402,53.26 63.31,53.26 Z" id="store." fill="#016087"></path>
                <path d="M10.14,19.26 C4.628,19.26 0.91,14.84 0.91,9.77 C0.91,4.284 4.628,0.28 10.01,0.28 C15.47,0.28 19.058,4.752 19.058,9.874 C19.058,15.178 15.184,19.26 10.14,19.26 Z M10.972,17.856 C13.936,17.856 15.964,15.256 15.964,12.162 C15.964,6.39 13.104,1.684 8.918,1.684 C5.954,1.684 4.004,4.076 4.004,7.43 C4.004,13.176 6.786,17.856 10.972,17.856 Z M28.184,6.26 C31.304,6.26 34.216,8.6 34.216,12.552 C34.216,16.504 31.486,19.26 28.21,19.26 C26.78,19.26 25.636,18.766 24.778,17.882 L24.778,22.588 C24.778,23.628 25.844,23.732 25.844,24.304 L25.844,24.382 C25.844,24.642 25.61,24.772 25.272,24.772 L21.32,24.772 C20.982,24.772 20.748,24.642 20.748,24.382 L20.748,24.304 C20.748,23.732 21.736,23.628 21.736,22.588 L21.736,9.848 C21.736,8.86 20.618,8.808 20.618,8.21 L20.618,8.106 C20.618,7.872 20.8,7.69 21.086,7.56 L23.478,6.39 C24.102,6.078 24.336,6.364 24.336,6.806 L24.31,8.236 C25.038,6.988 26.468,6.26 28.184,6.26 Z M27.846,18.272 C29.9,18.272 31.148,16.556 31.148,13.514 C31.148,9.796 29.666,7.248 27.43,7.248 C26.104,7.248 24.96,8.314 24.778,9.77 L24.778,14.58 C24.778,16.478 26.26,18.272 27.846,18.272 Z M46.436,15.178 C46.722,14.814 47.32,14.918 47.268,15.438 C47.034,16.972 45.292,19.26 41.99,19.26 C38.506,19.26 35.828,16.686 35.828,12.656 C35.828,8.938 38.61,6.26 42.042,6.26 C45.396,6.26 46.904,8.262 46.904,10.082 C46.904,11.07 46.384,11.616 45.578,11.902 L39.286,14.216 C39.936,15.984 41.262,17.076 43.108,17.076 C44.746,17.076 45.916,16.218 46.436,15.178 Z M41.522,7.248 C39.884,7.248 38.844,8.99 38.844,11.486 C38.844,12.084 38.896,12.63 39,13.15 L43.316,11.278 C43.784,11.07 43.992,10.706 43.992,10.186 C43.992,9.12 43.03,7.248 41.522,7.248 Z M61.698,16.816 C61.75,17.856 62.634,17.96 62.634,18.532 L62.634,18.636 C62.634,18.87 62.4,19.026 62.062,19.026 L58.266,19.026 C57.902,19.026 57.694,18.87 57.694,18.636 L57.694,18.532 C57.694,17.96 58.682,17.856 58.63,16.816 L58.37,11.798 C58.24,8.834 57.226,7.508 55.64,7.508 C53.976,7.508 52.91,8.86 52.91,10.732 L52.91,16.842 C52.91,17.856 53.976,17.96 53.976,18.532 L53.976,18.636 C53.976,18.87 53.768,19.026 53.404,19.026 L49.374,19.026 C49.036,19.026 48.828,18.87 48.828,18.636 L48.828,18.532 C48.828,17.96 49.868,17.856 49.868,16.842 L49.868,9.874 C49.868,8.73 48.698,8.704 48.698,8.132 L48.698,8.054 C48.698,7.846 48.88,7.716 49.166,7.586 L51.688,6.364 C52.234,6.078 52.494,6.39 52.494,6.832 L52.494,8.522 C53.222,7.118 54.652,6.26 56.446,6.26 C58.89,6.26 61.126,7.82 61.386,11.902 L61.698,16.816 Z M80.834,16.66 C81.016,18.35 82.264,17.83 82.264,18.506 C82.264,19 81.276,19.156 80.158,19.156 C78.832,19.156 78.182,18.87 78.078,17.596 C77.48,18.558 76.31,19.26 74.464,19.26 C71.63,19.26 69.602,17.882 69.602,15.334 C69.576,12.786 71.708,11.434 74.334,11.434 C75.608,11.434 76.648,11.772 77.35,12.318 L77.298,11.798 C77.012,8.782 76.388,7.222 74.568,7.222 C72.15,7.222 72.67,10.368 71.032,10.368 C70.252,10.368 69.758,9.9 69.758,9.172 C69.758,7.534 71.786,6.26 74.568,6.26 C77.844,6.26 79.95,8.314 80.314,11.668 L80.834,16.66 Z M75.322,18.272 C76.778,18.272 77.74,17.05 77.662,15.646 L77.584,14.84 C77.48,13.358 76.492,12.422 75.114,12.422 C73.684,12.422 72.67,13.41 72.67,14.97 C72.67,16.738 73.71,18.272 75.322,18.272 Z" id="Open-a" fill="#BC4681"></path>
            </g>
        </g>
    </g>
</svg>