<?xml version="1.0" encoding="UTF-8"?>
<svg width="133px" height="22px" viewBox="0 0 133 22" version="1.1" xmlns="http://www.w3.org/2000/svg" xmlns:xlink="http://www.w3.org/1999/xlink">
    <!-- Generator: Sketch 52.3 (67297) - http://www.bohemiancoding.com/sketch -->
    <title>wordpressdotcom_wbadge-wte1 copy 3</title>
    <desc>Created with Sketch.</desc>
    <g id="Page-1" stroke="none" stroke-width="1" fill="none" fill-rule="evenodd">
        <g id="300x600/300x600_01" transform="translate(-22.000000, -555.000000)" fill="#016087">
            <g id="wordpressdotcom_wbadge-wte1-copy-3" transform="translate(22.000000, 555.000000)">
                <path d="M15.8067677,19.5475366 L18.7960101,10.8140732 C19.3546676,9.40312195 19.5405328,8.27508537 19.5405328,7.27193902 C19.5405328,6.90773171 19.5167686,6.56981707 19.4745506,6.25484146 C20.2385891,7.66337805 20.6733808,9.27984146 20.6733808,10.9994634 C20.6733808,14.6478415 18.7166192,17.8335488 15.8067677,19.5475366 Z M12.2349708,6.36256098 C12.8241633,6.33130488 13.3550738,6.26865854 13.3550738,6.26865854 C13.8823997,6.2057439 13.8204004,5.42246341 13.292809,5.45371951 C13.292809,5.45371951 11.7075121,5.57941463 10.684059,5.57941463 C9.72220696,5.57941463 8.10624237,5.45371951 8.10624237,5.45371951 C7.57851815,5.42246341 7.51665161,6.23713415 8.04437583,6.26865854 C8.04437583,6.26865854 8.54355648,6.33130488 9.07074966,6.36256098 L10.5955076,10.5842805 L8.45314637,17.0749512 L4.88944792,6.36256098 C5.47917144,6.33130488 6.00941812,6.26865854 6.00941812,6.26865854 C6.53674406,6.2057439 6.47434648,5.42246341 5.94688778,5.45371951 C5.94688778,5.45371951 4.36185645,5.57941463 3.33840336,5.57941463 C3.15492792,5.57941463 2.93839503,5.57471951 2.70818779,5.56734146 C4.45850632,2.88280488 7.46660078,1.10992683 10.8859882,1.10992683 C13.4340665,1.10992683 15.7541944,2.09429268 17.4953525,3.70646341 C17.4534,3.70378049 17.4119787,3.69841463 17.3686986,3.69841463 C16.4071121,3.69841463 15.724987,4.54460976 15.724987,5.45371951 C15.724987,6.26865854 16.1903137,6.95803659 16.6864408,7.7732439 C17.0585694,8.43190244 17.4932283,9.27796341 17.4932283,10.500439 C17.4932283,11.3473049 17.2448328,12.4124268 16.7485729,13.6978171 L15.7721171,16.9936585 L12.2349708,6.36256098 Z M10.8859882,20.8902073 C9.92533101,20.8902073 8.99799674,20.7474756 8.12111158,20.4873659 L11.0580462,11.8647073 L14.0662735,20.1930488 C14.0860548,20.2416098 14.1102173,20.2864146 14.1363712,20.3292073 C13.1190251,20.6907317 12.0258726,20.8902073 10.8859882,20.8902073 Z M1.09872847,10.9994634 C1.09872847,9.56557317 1.40314901,8.2042561 1.94640625,6.97453659 L6.61507294,19.899939 C3.34968803,18.2971585 1.09872847,14.9142561 1.09872847,10.9994634 Z M10.8859882,0 C4.88360644,0 0,4.93430488 0,10.9994634 C0,17.0651585 4.88360644,22 10.8859882,22 C16.8885028,22 21.772242,17.0651585 21.772242,10.9994634 C21.772242,4.93430488 16.8885028,0 10.8859882,0 Z" id="Fill-1"></path>
                <path d="M38.1346425,6.35555556 L35.9666658,14.8133585 L33.7989543,6.35555556 L31.6105574,6.35555556 L32.1201314,8.16812462 L30.2117815,15.099589 L28.1363582,6.35555556 L26.0320285,6.35555556 L28.9902891,17.4018197 L31.2833057,17.4018197 L33.0553449,11.4961269 L34.7153388,17.4018197 L37.0086206,17.4018197 L40.1136671,6.35555556 L38.1346425,6.35555556 Z M101.171052,17.4018197 L103.093722,17.4018197 L103.093722,15.3906664 L101.171052,15.3906664 L101.171052,17.4018197 Z M43.7667411,9.37242011 C41.1200857,9.37242011 39.8695543,11.1038053 39.8695543,13.4943554 C39.8695543,15.8850401 41.1200857,17.6 43.7667411,17.6 C46.3973521,17.6 47.6639278,15.8850401 47.6639278,13.4943554 C47.6639278,11.1038053 46.3973521,9.37242011 43.7667411,9.37242011 Z M43.7667411,16.0335407 C42.5163422,16.0335407 41.8508331,15.2093152 41.8508331,13.4943554 C41.8508331,11.7962247 42.5163422,10.95517 43.7667411,10.95517 C45.0171399,10.95517 45.6668699,11.7797994 45.6668699,13.4943554 C45.6668699,15.19289 45.0171399,16.0335407 43.7667411,16.0335407 Z M60.2033196,9.55377126 C59.6348721,9.43865973 59.2289897,9.37242011 58.7581344,9.37242011 C56.1113464,9.37242011 54.6661612,11.169641 54.6661612,13.791222 C54.6661612,16.3961084 56.1113464,17.6 57.8164236,17.6 C58.66094,17.6 59.6836681,17.2040433 60.3007791,16.6765497 L60.3007791,17.4018197 L62.1192276,17.4018197 L62.1192276,6.35555556 L60.2033196,6.35555556 L60.2033196,9.55377126 Z M60.2033196,15.1432103 C59.5864738,15.7201143 59.0017168,16.0335407 58.3848711,16.0335407 C57.3291261,16.0335407 56.6471748,15.3242921 56.6471748,13.6592813 C56.6471748,11.8620604 57.4915586,10.9224541 58.953186,10.9224541 C59.4075992,10.9224541 59.8787198,11.0377003 60.2033196,11.169641 L60.2033196,15.1432103 Z M68.0393289,6.35555556 L64.490477,6.35555556 L64.490477,17.4018197 L66.5365962,17.4018197 L66.5365962,13.5603257 L68.0393289,13.5603257 C70.361517,13.5603257 72.0505499,12.290733 72.0505499,9.91674283 C72.0505499,7.52565418 70.361517,6.35555556 68.0393289,6.35555556 Z M68.055771,11.944456 L66.5365962,11.944456 L66.5365962,7.9877159 L68.055771,7.9877159 C69.2899929,7.9877159 69.9072364,8.68000069 69.9072364,9.91674283 C69.9072364,11.1365212 69.3389215,11.944456 68.055771,11.944456 Z M82.4555122,9.37242011 C79.9874663,9.37242011 78.7047136,11.3181416 78.7047136,13.4448103 C78.7047136,16.3633925 80.2142088,17.6 82.6638236,17.6 C83.6543304,17.6 84.5099851,17.4661744 85.508713,17.1546328 L85.508713,15.5368782 C84.7043737,15.8364375 83.9787976,16.0168462 83.1995194,16.0168462 C81.7711741,16.0168462 80.8156732,15.6212934 80.7667445,13.9064681 L85.7031016,13.9064681 C85.7359859,13.5934455 85.7683398,13.2967136 85.7683398,12.7526601 C85.7683398,11.1038053 84.907779,9.37242011 82.4555122,9.37242011 Z M80.7831867,12.6204502 C80.8968231,11.5322086 81.481315,10.8397892 82.4390701,10.8397892 C83.4624612,10.8397892 83.770884,11.6644186 83.770884,12.6204502 L80.7831867,12.6204502 Z M89.0970791,11.7633741 C89.0970791,11.169641 89.7307647,10.9391486 90.4123183,10.9391486 C91.5122184,10.9391486 92.5556318,11.2850218 92.5556318,11.2850218 L92.5556318,9.66915206 C91.8414591,9.45495037 91.1105792,9.37242011 90.2664605,9.37242011 C88.4151277,9.37242011 87.1161981,10.2627506 87.1161981,11.7135598 C87.1161981,14.5330518 90.9484119,13.8079165 90.9484119,15.1761954 C90.9484119,15.8521896 90.3474779,16.0335407 89.4707401,16.0335407 C88.8534966,16.0335407 87.863255,15.7890465 87.1488172,15.5368782 L87.1488172,17.1363227 C87.7436516,17.3739506 88.5774276,17.6 89.4058997,17.6 C91.2080387,17.6 92.9294255,17.0556773 92.9294255,15.0937998 C92.9294255,12.3732633 89.0970791,13.0822426 89.0970791,11.7633741 Z M115.688142,9.37242011 C113.041487,9.37242011 111.791088,11.1038053 111.791088,13.4943554 C111.791088,15.8850401 113.041487,17.6 115.688142,17.6 C118.318753,17.6 119.585727,15.8850401 119.585727,13.4943554 C119.585727,11.1038053 118.318753,9.37242011 115.688142,9.37242011 Z M115.688142,16.0335407 C114.437876,16.0335407 113.772234,15.2093152 113.772234,13.4943554 C113.772234,11.7962247 114.437876,10.95517 115.688142,10.95517 C116.938674,10.95517 117.588139,11.7797994 117.588139,13.4943554 C117.588139,15.19289 116.938674,16.0335407 115.688142,16.0335407 Z M130.547998,9.37242011 C129.719924,9.37242011 128.778213,9.83407794 127.917255,10.4112512 L127.690247,10.5597518 C127.2841,9.6858466 126.472202,9.37242011 125.579288,9.37242011 C124.751213,9.37242011 123.80937,9.80136203 122.948544,10.3784007 L122.948544,9.5704658 L121.129963,9.5704658 L121.129963,17.4018197 L123.062313,17.4018197 L123.062313,11.7797994 C123.776618,11.3017163 124.539719,11.0049844 125.091857,11.0049844 C125.725543,11.0049844 126.114983,11.3509921 126.114983,12.4559282 L126.114983,17.4018197 L128.031289,17.4018197 L128.031289,11.7962247 C128.745594,11.3181416 129.509093,11.0049844 130.060966,11.0049844 C130.694121,11.0049844 131.083959,11.3509921 131.083959,12.4559282 L131.083959,17.4018197 L133,17.4018197 L133,11.9942704 C133,10.4770869 132.10682,9.37242011 130.547998,9.37242011 Z M75.0983141,10.8564838 L75.0334737,10.8564838 L75.0334737,9.5704658 L73.2472466,9.5704658 L73.2472466,17.4018197 L75.1631545,17.4018197 L75.1631545,12.7359656 C75.7639559,11.582023 76.4947033,11.2027608 77.712483,11.2027608 L77.9072694,11.2027608 L77.9072694,9.50463008 C77.9072694,9.50463008 77.6314657,9.47151028 77.387618,9.47151028 C76.348713,9.47151028 75.6340099,9.88362302 75.0983141,10.8564838 Z M51.0597617,10.8564838 L50.9949213,10.8564838 L50.9949213,9.5704658 L49.2084289,9.5704658 L49.2084289,17.4018197 L51.1247347,17.4018197 L51.1247347,12.7359656 C51.7254035,11.582023 52.4561509,11.2027608 53.6739306,11.2027608 L53.8689822,11.2027608 L53.8689822,9.50463008 C53.8689822,9.50463008 53.592648,9.47151028 53.3494634,9.47151028 C52.3098953,9.47151028 51.5955901,9.88362302 51.0597617,10.8564838 Z M106.17636,13.4120944 C106.17636,11.582023 107.166734,10.95517 108.335718,10.95517 C109.115261,10.95517 109.935114,11.1863355 110.486987,11.4005372 L110.486987,9.75181695 C109.837257,9.53734599 109.261384,9.37242011 108.303496,9.37242011 C105.754035,9.37242011 104.178772,10.95517 104.178772,13.5107806 C104.178772,15.9344506 105.315401,17.6 108.189595,17.6 C109.098819,17.6 109.804903,17.4185142 110.584181,17.1546328 L110.584181,15.5387631 C109.707444,15.8850401 109.033979,16.0168462 108.43331,16.0168462 C107.166734,16.0168462 106.17636,15.4233823 106.17636,13.4120944 Z M96.0722624,11.7633741 C96.0722624,11.169641 96.7055503,10.9391486 97.3876342,10.9391486 C98.4874017,10.9391486 99.5309477,11.2850218 99.5309477,11.2850218 L99.5309477,9.66915206 C98.8165099,9.45495037 98.0856299,9.37242011 97.2412461,9.37242011 C95.3901785,9.37242011 94.0909836,10.2627506 94.0909836,11.7135598 C94.0909836,14.5330518 97.92333,13.8079165 97.92333,15.1761954 C97.92333,15.8521896 97.322396,16.0335407 96.4455257,16.0335407 C95.8284148,16.0335407 94.8383058,15.7890465 94.1237353,15.5368782 L94.1237353,17.1363227 C94.718835,17.3739506 95.552611,17.6 96.3806853,17.6 C98.1833546,17.6 99.904211,17.0556773 99.904211,15.0937998 C99.904211,12.3732633 96.0722624,13.0822426 96.0722624,11.7633741 Z" id="Fill-3"></path>
            </g>
        </g>
    </g>
</svg>